<?xml version="1.0" standalone="no"?>
<!DOCTYPE svg PUBLIC "-//W3C//DTD SVG 20010904//EN"
 "http://www.w3.org/TR/2001/REC-SVG-20010904/DTD/svg10.dtd">
<svg version="1.0" xmlns="http://www.w3.org/2000/svg"
 width="500.000000pt" height="400.000000pt" viewBox="0 0 500.000000 400.000000"
 preserveAspectRatio="xMidYMid meet">
<metadata>
Created by potrace 1.15, written by Peter Selinger 2001-2017
</metadata>
<g transform="translate(0.000000,1167.000000) scale(0.100000,-0.100000)"
fill="#fafafa" stroke-width="12" stroke="#777777">
<path d="M1174 10798 c-69 -137 -218 -307 -348 -397 -92 -63 -281 -157 -408
-201 l-98 -34 0 -293 c0 -235 3 -293 13 -293 7 0 51 13 98 29 215 73 362 145
531 257 l108 72 0 -849 0 -849 365 0 365 0 0 1305 0 1305 -300 0 -300 0 -26
-52z"/>
<path d="M2800 10805 c0 -3 -49 -307 -110 -676 -60 -370 -110 -679 -110 -688
0 -14 48 -23 303 -59 l302 -43 50 47 c106 99 204 139 330 132 193 -11 299
-122 326 -342 30 -241 -44 -432 -197 -507 -67 -33 -196 -34 -266 -2 -99 46
-188 162 -204 269 -3 25 -12 48 -19 50 -12 5 -653 -61 -702 -71 l-22 -5 25
-73 c164 -456 515 -655 1123 -634 107 4 198 13 256 25 389 84 640 342 721 742
23 116 16 326 -16 425 -69 219 -232 403 -437 496 -119 55 -220 73 -393 73
-166 0 -247 -15 -388 -71 -35 -14 -66 -23 -68 -20 -3 3 7 84 22 181 l28 176
573 0 573 0 0 290 0 290 -850 0 c-467 0 -850 -2 -850 -5z"/>
</g>
</svg>
