<?xml version="1.0" standalone="no"?>
<!DOCTYPE svg PUBLIC "-//W3C//DTD SVG 20010904//EN"
 "http://www.w3.org/TR/2001/REC-SVG-20010904/DTD/svg10.dtd">
<svg version="1.0" xmlns="http://www.w3.org/2000/svg"
 width="500.000000pt" height="400.000000pt" viewBox="0 0 500.000000 400.000000"
 preserveAspectRatio="xMidYMid meet">
<metadata>
Created by potrace 1.15, written by Peter Selinger 2001-2017
</metadata>
<g transform="translate(0.000000,1167.000000) scale(0.100000,-0.100000)"
fill="#fafafa" stroke-width="12" stroke="#777777">
<path d="M2400 10880 c-463 -49 -700 -248 -796 -669 -29 -129 -30 -151 -6
-151 10 0 155 -11 322 -25 167 -14 320 -25 340 -25 l37 0 17 79 c42 197 134
289 297 299 109 6 168 -15 240 -87 66 -66 84 -118 77 -214 -12 -147 -128 -281
-468 -541 -394 -302 -587 -484 -719 -678 -89 -132 -174 -344 -204 -510 l-15
-78 1074 0 1074 0 0 290 0 290 -550 0 c-302 0 -550 3 -549 8 1 18 185 167 356
290 399 285 549 434 649 645 56 120 69 184 69 342 -1 125 -4 148 -28 217 -97
281 -321 451 -662 503 -121 19 -438 27 -555 15z"/>
</g>
</svg>
