<?xml version="1.0" standalone="no"?>
<!DOCTYPE svg PUBLIC "-//W3C//DTD SVG 20010904//EN"
 "http://www.w3.org/TR/2001/REC-SVG-20010904/DTD/svg10.dtd">
<svg version="1.0" xmlns="http://www.w3.org/2000/svg"
 width="500.000000pt" height="400.000000pt" viewBox="0 0 500.000000 400.000000"
 preserveAspectRatio="xMidYMid meet">
<metadata>
Created by potrace 1.15, written by Peter Selinger 2001-2017
</metadata>
<g transform="translate(0.000000,1167.000000) scale(0.100000,-0.100000)"
fill="#fafafa" stroke-width="12" stroke="#777777">
<path d="M1174 10880 c-463 -49 -700 -248 -796 -669 -29 -129 -30 -151 -6
-151 10 0 155 -11 322 -25 167 -14 320 -25 340 -25 l37 0 17 79 c42 197 134
289 297 299 109 6 168 -15 240 -87 66 -66 84 -118 77 -214 -12 -147 -128 -281
-468 -541 -394 -302 -587 -484 -719 -678 -89 -132 -174 -344 -204 -510 l-15
-78 1074 0 1074 0 0 290 0 290 -550 0 c-302 0 -550 3 -549 8 1 18 185 167 356
290 399 285 549 434 649 645 56 120 69 184 69 342 -1 125 -4 148 -28 217 -97
281 -321 451 -662 503 -121 19 -438 27 -555 15z"/>
<path d="M3600 10880 c-170 -21 -322 -60 -415 -107 -75 -37 -187 -121 -237
-176 -169 -189 -251 -476 -265 -931 -13 -451 57 -819 196 -1032 145 -223 331
-341 611 -389 109 -19 392 -16 510 5 195 35 339 100 450 203 210 195 313 514
327 1019 8 282 -21 545 -84 763 -99 343 -345 568 -688 631 -63 11 -346 21
-405 14z m246 -509 c160 -78 214 -286 214 -826 0 -466 -37 -642 -159 -751 -55
-50 -104 -68 -180 -68 -116 0 -205 76 -259 223 -89 237 -90 986 -2 1241 23 68
69 137 112 167 75 54 182 59 274 14z"/>
</g>
</svg>
