<?xml version="1.0" standalone="no"?>
<!DOCTYPE svg PUBLIC "-//W3C//DTD SVG 20010904//EN"
 "http://www.w3.org/TR/2001/REC-SVG-20010904/DTD/svg10.dtd">
<svg version="1.0" xmlns="http://www.w3.org/2000/svg"
 width="500.000000pt" height="400.000000pt" viewBox="0 0 500.000000 400.000000"
 preserveAspectRatio="xMidYMid meet">
<metadata>
Created by potrace 1.15, written by Peter Selinger 2001-2017
</metadata>
<g transform="translate(0.000000,1167.000000) scale(0.100000,-0.100000)"
fill="#fafafa" stroke-width="12" stroke="#777777">
<path d="M1174 10880 c-463 -49 -700 -248 -796 -669 -29 -129 -30 -151 -6
-151 10 0 155 -11 322 -25 167 -14 320 -25 340 -25 l37 0 17 79 c42 197 134
289 297 299 109 6 168 -15 240 -87 66 -66 84 -118 77 -214 -12 -147 -128 -281
-468 -541 -394 -302 -587 -484 -719 -678 -89 -132 -174 -344 -204 -510 l-15
-78 1074 0 1074 0 0 290 0 290 -550 0 c-302 0 -550 3 -549 8 1 18 185 167 356
290 399 285 549 434 649 645 56 120 69 184 69 342 -1 125 -4 148 -28 217 -97
281 -321 451 -662 503 -121 19 -438 27 -555 15z"/>
<path d="M3000 10805 c0 -3 -49 -307 -110 -676 -60 -370 -110 -679 -110 -688
0 -14 48 -23 303 -59 l302 -43 50 47 c106 99 204 139 330 132 193 -11 299
-122 326 -342 30 -241 -44 -432 -197 -507 -67 -33 -196 -34 -266 -2 -99 46
-188 162 -204 269 -3 25 -12 48 -19 50 -12 5 -653 -61 -702 -71 l-22 -5 25
-73 c164 -456 515 -655 1123 -634 107 4 198 13 256 25 389 84 640 342 721 742
23 116 16 326 -16 425 -69 219 -232 403 -437 496 -119 55 -220 73 -393 73
-166 0 -247 -15 -388 -71 -35 -14 -66 -23 -68 -20 -3 3 7 84 22 181 l28 176
573 0 573 0 0 290 0 290 -850 0 c-467 0 -850 -2 -850 -5z"/>
</g>
</svg>
