<?xml version="1.0" standalone="no"?>
<!DOCTYPE svg PUBLIC "-//W3C//DTD SVG 20010904//EN"
 "http://www.w3.org/TR/2001/REC-SVG-20010904/DTD/svg10.dtd">
<svg version="1.0" xmlns="http://www.w3.org/2000/svg"
 width="500.000000pt" height="400.000000pt" viewBox="0 0 500.000000 400.000000"
 preserveAspectRatio="xMidYMid meet">
<metadata>
Created by potrace 1.15, written by Peter Selinger 2001-2017
</metadata>
<g transform="translate(0.000000,1167.000000) scale(0.100000,-0.100000)"
fill="#fafafa" stroke-width="12" stroke="#777777">
<path d="M1174 10880 c-463 -49 -700 -248 -796 -669 -29 -129 -30 -151 -6
-151 10 0 155 -11 322 -25 167 -14 320 -25 340 -25 l37 0 17 79 c42 197 134
289 297 299 109 6 168 -15 240 -87 66 -66 84 -118 77 -214 -12 -147 -128 -281
-468 -541 -394 -302 -587 -484 -719 -678 -89 -132 -174 -344 -204 -510 l-15
-78 1074 0 1074 0 0 290 0 290 -550 0 c-302 0 -550 3 -549 8 1 18 185 167 356
290 399 285 549 434 649 645 56 120 69 184 69 342 -1 125 -4 148 -28 217 -97
281 -321 451 -662 503 -121 19 -438 27 -555 15z"/>
<path d="M3500 10900 c-364 -45 -602 -216 -735 -526 -47 -109 -67 -215 -67
-358 0 -256 78 -459 241 -623 78 -80 136 -121 234 -167 103 -49 176 -66 308
-72 208 -10 369 42 527 171 l78 63 -8 -76 c-21 -202 -57 -370 -95 -445 -23
-45 -93 -116 -138 -138 -23 -13 -68 -23 -107 -26 -127 -9 -215 59 -255 198 -8
30 -18 58 -22 62 -6 7 -700 -77 -709 -86 -8 -8 26 -93 74 -185 143 -273 361
-401 735 -432 314 -27 592 34 799 174 68 46 187 165 232 230 56 82 123 228
152 327 103 363 97 906 -13 1233 -41 120 -113 252 -188 346 -139 174 -320 275
-568 317 -111 19 -374 26 -475 13z m323 -465 c68 -23 157 -107 191 -183 84
-189 53 -447 -68 -559 -78 -72 -118 -87 -226 -87 -87 0 -100 3 -149 30 -134
74 -202 234 -188 444 19 287 201 434 440 355z"/>
</g>
</svg>
