<?xml version="1.0" standalone="no"?>
<!DOCTYPE svg PUBLIC "-//W3C//DTD SVG 20010904//EN"
 "http://www.w3.org/TR/2001/REC-SVG-20010904/DTD/svg10.dtd">
<svg version="1.0" xmlns="http://www.w3.org/2000/svg"
 width="500.000000pt" height="400.000000pt" viewBox="0 0 500.000000 400.000000"
 preserveAspectRatio="xMidYMid meet">
<metadata>
Created by potrace 1.15, written by Peter Selinger 2001-2017
</metadata>
<g transform="translate(0.000000,1167.000000) scale(0.100000,-0.100000)"
fill="#fafafa" stroke-width="12" stroke="#777777">
<path d="M1174 10880 c-276 -31 -498 -139 -632 -310 -83 -106 -184 -325 -159
-348 8 -8 621 -121 656 -121 10 0 18 13 22 38 39 222 178 332 369 293 76 -16
129 -57 162 -125 24 -49 27 -65 23 -128 -5 -86 -26 -137 -83 -193 -67 -68
-124 -89 -237 -90 l-98 0 0 -30 c0 -16 -7 -113 -15 -215 -8 -102 -15 -204 -15
-227 l0 -41 58 16 c35 10 98 16 167 16 101 1 115 -1 167 -27 99 -49 149 -124
170 -262 23 -146 -20 -285 -113 -369 -59 -53 -128 -78 -214 -78 -146 0 -247
73 -302 217 -17 44 -34 97 -37 118 -6 30 -11 37 -29 37 -38 0 -688 -88 -694
-94 -9 -9 46 -155 90 -239 142 -267 374 -421 707 -468 139 -20 451 -17 574 5
316 57 523 198 650 445 70 136 88 205 93 361 4 105 2 150 -11 200 -50 201
-203 355 -409 415 l-59 17 65 43 c187 126 276 273 285 470 7 185 -46 323 -175
451 -112 111 -248 173 -458 209 -112 19 -401 27 -518 14z"/>
<path d="M3600 10880 c-170 -21 -322 -60 -415 -107 -75 -37 -187 -121 -237
-176 -169 -189 -251 -476 -265 -931 -13 -451 57 -819 196 -1032 145 -223 331
-341 611 -389 109 -19 392 -16 510 5 195 35 339 100 450 203 210 195 313 514
327 1019 8 282 -21 545 -84 763 -99 343 -345 568 -688 631 -63 11 -346 21
-405 14z m246 -509 c160 -78 214 -286 214 -826 0 -466 -37 -642 -159 -751 -55
-50 -104 -68 -180 -68 -116 0 -205 76 -259 223 -89 237 -90 986 -2 1241 23 68
69 137 112 167 75 54 182 59 274 14z"/>
</g>
</svg>
