<?xml version="1.0" standalone="no"?>
<!DOCTYPE svg PUBLIC "-//W3C//DTD SVG 20010904//EN"
 "http://www.w3.org/TR/2001/REC-SVG-20010904/DTD/svg10.dtd">
<svg version="1.0" xmlns="http://www.w3.org/2000/svg"
 width="500.000000pt" height="400.000000pt" viewBox="0 0 500.000000 400.000000"
 preserveAspectRatio="xMidYMid meet">
<metadata>
Created by potrace 1.15, written by Peter Selinger 2001-2017
</metadata>
<g transform="translate(0.000000,1167.000000) scale(0.100000,-0.100000)"
fill="#fafafa" stroke-width="12" stroke="#777777">
<path d="M1900 10200 l-647 -768 0 -297 0 -298 645 -2 646 -3 2 -235 2 -235
312 -3 313 -2 2 237 3 238 163 3 162 2 0 280 0 280 -162 2 -163 3 -3 783 -2
782 -313 0 -313 0 -647 -767z m653 -408 c0 -301 -3 -387 -13 -390 -7 -3 -158
-4 -336 -3 l-323 3 328 387 c181 213 332 387 337 388 4 0 7 -173 7 -385z"/>
</g>
</svg>
