<?xml version="1.0" standalone="no"?>
<!DOCTYPE svg PUBLIC "-//W3C//DTD SVG 20010904//EN"
 "http://www.w3.org/TR/2001/REC-SVG-20010904/DTD/svg10.dtd">
<svg version="1.0" xmlns="http://www.w3.org/2000/svg"
 width="500.000000pt" height="400.000000pt" viewBox="0 0 500.000000 400.000000"
 preserveAspectRatio="xMidYMid meet">
<metadata>
Created by potrace 1.15, written by Peter Selinger 2001-2017
</metadata>
<g transform="translate(0.000000,1167.000000) scale(0.100000,-0.100000)"
fill="#fafafa" stroke-width="12" stroke="#777777">
<path d="M2300 10798 c-268 -43 -491 -165 -630 -345 -179 -233 -257 -528 -258
-975 0 -483 93 -791 312 -1027 190 -204 424 -288 806 -288 243 0 402 32 555
111 276 142 440 434 440 779 0 191 -44 350 -135 491 -172 267 -461 403 -776
368 -159 -18 -272 -67 -405 -177 l-64 -54 0 31 c0 47 29 259 47 336 45 204
157 317 313 318 118 1 191 -59 232 -190 18 -59 26 -73 43 -73 22 0 689 81 693
85 6 5 -41 122 -78 193 -126 243 -328 377 -630 417 -128 18 -356 18 -465 0z
m334 -1356 c102 -44 179 -156 200 -289 49 -301 -70 -522 -290 -538 -160 -11
-292 81 -350 244 -26 72 -36 224 -20 309 44 234 260 363 460 274z"/>
</g>
</svg>
