<?xml version="1.0" standalone="no"?>
<!DOCTYPE svg PUBLIC "-//W3C//DTD SVG 20010904//EN"
 "http://www.w3.org/TR/2001/REC-SVG-20010904/DTD/svg10.dtd">
<svg version="1.0" xmlns="http://www.w3.org/2000/svg"
 width="500.000000pt" height="400.000000pt" viewBox="0 0 500.000000 400.000000"
 preserveAspectRatio="xMidYMid meet">
<metadata>
Created by potrace 1.15, written by Peter Selinger 2001-2017
</metadata>
<g transform="translate(0.000000,1167.000000) scale(0.100000,-0.100000)"
fill="#fafafa" stroke-width="12" stroke="#777777">
<path d="M2250 10820 c-119 -16 -253 -57 -348 -106 -122 -63 -257 -193 -310
-299 -92 -183 -84 -408 18 -579 47 -78 100 -131 185 -186 38 -24 69 -46 69
-49 0 -3 -37 -22 -81 -44 -117 -56 -214 -154 -267 -267 -83 -180 -91 -384 -22
-587 40 -115 84 -184 176 -277 117 -118 244 -180 460 -222 72 -14 143 -18 360
-18 244 0 281 2 385 23 311 63 499 201 610 446 51 111 64 179 64 321 0 116 -3
139 -28 210 -36 105 -76 173 -143 246 -47 50 -171 144 -215 162 -9 4 -4 13 17
29 67 51 160 147 197 202 56 86 89 200 89 307 1 188 -48 308 -180 440 -129
128 -265 194 -488 235 -105 19 -445 27 -548 13z m371 -457 c65 -33 101 -69
130 -129 38 -76 39 -193 4 -266 -80 -167 -315 -208 -462 -79 -72 64 -105 199
-74 307 22 75 100 156 172 179 67 22 176 16 230 -12z m15 -1014 c59 -35 134
-116 162 -175 18 -41 22 -66 22 -168 0 -109 -2 -125 -27 -177 -107 -228 -362
-273 -527 -93 -72 79 -95 144 -94 270 0 150 43 244 144 318 63 46 104 58 195
54 65 -3 89 -8 125 -29z"/>
</g>
</svg>
